<mxfile host="app.diagrams.net" modified="2023-09-06T08:11:56.903Z" agent="Mozilla/5.0 (Windows NT 10.0; Win64; x64) AppleWebKit/537.36 (KHTML, like Gecko) Chrome/116.0.0.0 Safari/537.36" version="21.7.2" etag="L8VTPCdAlgf5xE1Rx-hn" type="github">
  <diagram name="第 1 页" id="aXJIbHj-h9clv2qv0Cih">
    <mxGraphModel>
      <root>
        <mxCell id="0" />
        <mxCell id="1" parent="0" />
      </root>
    </mxGraphModel>
  </diagram>
</mxfile>
